<?xml version="1.0" ?><!DOCTYPE svg  PUBLIC '-//W3C//DTD SVG 1.1//EN'  'http://www.w3.org/Graphics/SVG/1.1/DTD/svg11.dtd'><svg width="32px" height="32px" viewBox="0 0 32 32" enable-background="new 0 0 32 32" version="1.1" xml:space="preserve" xmlns="http://www.w3.org/2000/svg" xmlns:xlink="http://www.w3.org/1999/xlink"><g id="Layer_2"/><g id="Layer_3"><g><path d="M19,4v10c0,0.55-0.45,1-1,1h-4c-0.55,0-1-0.45-1-1V4c0-0.55,0.45-1,1-1h4C18.55,3,19,3.45,19,4z" fill="#96CEE5"/></g><g><path d="M31,22v6c0,0.55-0.45,1-1,1H2c-0.55,0-1-0.45-1-1v-6c0-0.55,0.45-1,1-1h28C30.55,21,31,21.45,31,22z" fill="#48B1DD"/></g><g><path d="M7,26H5c-0.5527,0-1-0.4473-1-1s0.4473-1,1-1h2c0.5527,0,1,0.4473,1,1S7.5527,26,7,26z" fill="#96CEE5"/></g><g><path d="M12,26h-2c-0.5527,0-1-0.4473-1-1s0.4473-1,1-1h2c0.5527,0,1,0.4473,1,1S12.5527,26,12,26z" fill="#96CEE5"/></g><g><path d="M21.71,14.71l-5,5C16.51,19.9,16.26,20,16,20s-0.51-0.1-0.71-0.29l-5-5c-0.28-0.29-0.37-0.72-0.21-1.09    C10.23,13.24,10.6,13,11,13h10c0.4,0,0.77,0.24,0.92,0.62C22.08,13.99,21.99,14.42,21.71,14.71z" fill="#4391B2"/></g></g><g id="Layer_4"/><g id="Layer_5"/><g id="Layer_6"/><g id="Layer_7"/><g id="Layer_8"/><g id="Layer_9"/><g id="Layer_10"/><g id="Layer_11"/><g id="Layer_12"/><g id="Layer_13"/><g id="Layer_14"/><g id="Layer_15"/><g id="Layer_16"/><g id="Layer_17"/><g id="Layer_18"/><g id="Layer_19"/><g id="Layer_20"/><g id="Layer_21"/><g id="Layer_22"/><g id="Layer_23"/><g id="Layer_24"/><g id="Layer_25"/><g id="Layer_26"/><g id="Layer_27"/><g id="Layer_28"/><g id="Layer_29"/><g id="Layer_30"/><g id="Layer_31"/></svg>